<svg width="561" height="91" viewBox="0 0 561 91" fill="none" xmlns="http://www.w3.org/2000/svg">
<g clip-path="url(#clip0_65_2)">
<rect width="561" height="91" rx="17" fill="white"/>
<path d="M39.9688 58V69H18.9688V58H25V30.2812H18.9688V19.2812H45.7812L55.4375 43.2188L65 19.2812H90V30.2812H84V58H90V69H63.9688V58H68V39.4375L57 69H47.9688L34.9688 38.7188V58H39.9688ZM112.406 69.5625C108.615 69.5625 105.312 68.8646 102.5 67.4688C99.6458 66.0938 97.4271 64.0729 95.8438 61.4062C94.2604 58.7396 93.4688 55.5729 93.4688 51.9062C93.4688 48.2604 94.2604 45.1667 95.8438 42.625C97.4271 40.0625 99.6458 38.1354 102.5 36.8438C105.354 35.5312 108.656 34.875 112.406 34.875C116.26 34.875 119.604 35.5417 122.438 36.875C125.292 38.2083 127.5 40.1458 129.062 42.6875C130.625 45.2083 131.406 48.2812 131.406 51.9062C131.406 55.5729 130.625 58.7396 129.062 61.4062C127.479 64.0729 125.25 66.1042 122.375 67.5C119.521 68.875 116.198 69.5625 112.406 69.5625ZM112.406 60.4375C113.781 60.4375 114.802 59.7604 115.469 58.4062C116.115 57.0938 116.438 54.9271 116.438 51.9062C116.438 49.1354 116.115 47.1354 115.469 45.9062C114.844 44.6562 113.823 44.0312 112.406 44.0312C111.052 44.0312 110.052 44.6562 109.406 45.9062C108.76 47.1354 108.438 49.1354 108.438 51.9062C108.438 54.8646 108.771 57.0312 109.438 58.4062C110.104 59.7604 111.094 60.4375 112.406 60.4375ZM151.844 69.5625C143.823 69.5625 139.812 65.3854 139.812 57.0312V44.6875H134.812V35.5312H139.812V28.375L154.781 25.0312V35.5312H160.781V44.6875H154.781V55.9375C154.781 56.875 155.135 57.6562 155.844 58.2812C156.552 58.9062 157.438 59.2188 158.5 59.2188C159.271 59.2188 160.031 59.1562 160.781 59.0312V67.7188C158.031 68.9479 155.052 69.5625 151.844 69.5625ZM184.906 69.5625C181.115 69.5625 177.812 68.8646 175 67.4688C172.146 66.0938 169.927 64.0729 168.344 61.4062C166.76 58.7396 165.969 55.5729 165.969 51.9062C165.969 48.2604 166.76 45.1667 168.344 42.625C169.927 40.0625 172.146 38.1354 175 36.8438C177.854 35.5312 181.156 34.875 184.906 34.875C188.76 34.875 192.104 35.5417 194.938 36.875C197.792 38.2083 200 40.1458 201.562 42.6875C203.125 45.2083 203.906 48.2812 203.906 51.9062C203.906 55.5729 203.125 58.7396 201.562 61.4062C199.979 64.0729 197.75 66.1042 194.875 67.5C192.021 68.875 188.698 69.5625 184.906 69.5625ZM184.906 60.4375C186.281 60.4375 187.302 59.7604 187.969 58.4062C188.615 57.0938 188.938 54.9271 188.938 51.9062C188.938 49.1354 188.615 47.1354 187.969 45.9062C187.344 44.6562 186.323 44.0312 184.906 44.0312C183.552 44.0312 182.552 44.6562 181.906 45.9062C181.26 47.1354 180.938 49.1354 180.938 51.9062C180.938 54.8646 181.271 57.0312 181.938 58.4062C182.604 59.7604 183.594 60.4375 184.906 60.4375ZM246.375 45.1875L241 49.6875L247.469 59.5938H252.375V69H237.469L228.312 55.3125V69H207.844V59.5938H213.344V30.7812H207.844V22.2812L228.312 20.2188V50.625L234.844 45.1875H231.406V35.5312H251.375V45.1875H246.375ZM273.469 69.5625C269.677 69.5625 266.375 68.8646 263.562 67.4688C260.708 66.0938 258.49 64.0729 256.906 61.4062C255.323 58.7396 254.531 55.5729 254.531 51.9062C254.531 48.2604 255.323 45.1667 256.906 42.625C258.49 40.0625 260.708 38.1354 263.562 36.8438C266.417 35.5312 269.719 34.875 273.469 34.875C277.323 34.875 280.667 35.5417 283.5 36.875C286.354 38.2083 288.562 40.1458 290.125 42.6875C291.688 45.2083 292.469 48.2812 292.469 51.9062C292.469 55.5729 291.688 58.7396 290.125 61.4062C288.542 64.0729 286.312 66.1042 283.438 67.5C280.583 68.875 277.26 69.5625 273.469 69.5625ZM273.469 60.4375C274.844 60.4375 275.865 59.7604 276.531 58.4062C277.177 57.0938 277.5 54.9271 277.5 51.9062C277.5 49.1354 277.177 47.1354 276.531 45.9062C275.906 44.6562 274.885 44.0312 273.469 44.0312C272.115 44.0312 271.115 44.6562 270.469 45.9062C269.823 47.1354 269.5 49.1354 269.5 51.9062C269.5 54.8646 269.833 57.0312 270.5 58.4062C271.167 59.7604 272.156 60.4375 273.469 60.4375Z" fill="black"/>
<path d="M324.875 69H296.844V58H302.875V30.2812H297.688V19.2188H323.094C327.219 19.2188 330.74 19.5521 333.656 20.2188C336.51 20.9062 338.781 22.2188 340.469 24.1562C342.156 26.0729 343 28.7917 343 32.3125C343 34.7917 342.281 36.9479 340.844 38.7812C339.406 40.6146 337.583 41.9375 335.375 42.75C338.271 44 340.406 45.6146 341.781 47.5938C343.177 49.5729 343.875 52.2917 343.875 55.75C343.875 59.9792 342.219 63.25 338.906 65.5625C335.615 67.8542 330.938 69 324.875 69ZM318.875 30.2812V39.3125H320.594C322.969 39.3125 324.719 38.9792 325.844 38.3125C326.99 37.6458 327.562 36.3958 327.562 34.5625C327.562 33.2917 327.167 32.2604 326.375 31.4688C325.583 30.6771 324.552 30.2812 323.281 30.2812H318.875ZM318.875 47.5V58H320C322.521 58 324.458 57.6458 325.812 56.9375C327.188 56.2292 327.875 54.7708 327.875 52.5625C327.875 49.1458 325.792 47.4375 321.625 47.4375C321.167 47.4375 320.708 47.4479 320.25 47.4688C319.792 47.4688 319.333 47.4792 318.875 47.5Z" fill="#D72D2D"/>
<path d="M375.656 59.5938V69H350.375V59.5938H355.875V30.7812H350.375V22.2812L370.844 20.2188V59.5938H375.656Z" fill="#22AD49"/>
<path d="M399.344 69.5625C395.552 69.5625 392.25 68.8646 389.438 67.4688C386.583 66.0938 384.365 64.0729 382.781 61.4062C381.198 58.7396 380.406 55.5729 380.406 51.9062C380.406 48.2604 381.198 45.1667 382.781 42.625C384.365 40.0625 386.583 38.1354 389.438 36.8438C392.292 35.5312 395.594 34.875 399.344 34.875C403.198 34.875 406.542 35.5417 409.375 36.875C412.229 38.2083 414.438 40.1458 416 42.6875C417.562 45.2083 418.344 48.2812 418.344 51.9062C418.344 55.5729 417.562 58.7396 416 61.4062C414.417 64.0729 412.188 66.1042 409.312 67.5C406.458 68.875 403.135 69.5625 399.344 69.5625ZM399.344 60.4375C400.719 60.4375 401.74 59.7604 402.406 58.4062C403.052 57.0938 403.375 54.9271 403.375 51.9062C403.375 49.1354 403.052 47.1354 402.406 45.9062C401.781 44.6562 400.76 44.0312 399.344 44.0312C397.99 44.0312 396.99 44.6562 396.344 45.9062C395.698 47.1354 395.375 49.1354 395.375 51.9062C395.375 54.8646 395.708 57.0312 396.375 58.4062C397.042 59.7604 398.031 60.4375 399.344 60.4375Z" fill="#373CAD"/>
<path d="M441.719 69.5625C437.906 69.5625 434.583 68.8333 431.75 67.375C428.896 65.9375 426.677 63.8958 425.094 61.25C423.51 58.6042 422.719 55.4896 422.719 51.9062C422.719 48.6771 423.385 45.7708 424.719 43.1875C426.031 40.6042 427.906 38.5729 430.344 37.0938C432.802 35.6146 435.656 34.875 438.906 34.875C440.135 34.875 441.438 35.0312 442.812 35.3438C444.188 35.6354 445.417 36.0729 446.5 36.6562C447.604 37.2396 448.333 37.9688 448.688 38.8438L449.969 35.5312H456.781V49.3438H447.75C447.583 47.6771 447.094 46.375 446.281 45.4375C445.469 44.5 444.458 44.0312 443.25 44.0312C441.458 44.0312 440.094 44.6042 439.156 45.75C438.219 46.875 437.75 48.9479 437.75 51.9688C437.75 54.0521 438.125 55.6979 438.875 56.9062C439.646 58.0938 440.635 58.9479 441.844 59.4688C443.073 59.9688 444.375 60.2188 445.75 60.2188C447.25 60.2188 448.875 59.9583 450.625 59.4375C452.375 58.8958 453.927 58.0521 455.281 56.9062L455.75 57.2188V65.9375C455.75 66.0208 455.115 66.375 453.844 67C452.573 67.6458 450.885 68.2396 448.781 68.7812C446.677 69.3021 444.323 69.5625 441.719 69.5625Z" fill="#FFDC27"/>
<path d="M499.875 45.1875L494.5 49.6875L500.969 59.5938H505.875V69H490.969L481.812 55.3125V69H461.344V59.5938H466.844V30.7812H461.344V22.2812L481.812 20.2188V50.625L488.344 45.1875H484.906V35.5312H504.875V45.1875H499.875Z" fill="#B348D8"/>
<path d="M527.156 69.5625C522.885 69.5625 519.104 68.4375 515.812 66.1875L514.781 69H508.969V56.6562H515.938C516.208 58.2396 516.948 59.6562 518.156 60.9062C519.365 62.1562 520.76 62.7812 522.344 62.7812C522.948 62.7812 523.469 62.6146 523.906 62.2812C524.365 61.9479 524.594 61.3958 524.594 60.625C524.594 59.8542 524.156 59.1562 523.281 58.5312C522.385 57.8854 521.052 57.1458 519.281 56.3125C517.135 55.25 515.385 54.2812 514.031 53.4062C512.656 52.5312 511.469 51.3854 510.469 49.9688C509.469 48.5312 508.969 46.8125 508.969 44.8125C508.969 42.75 509.646 40.9583 511 39.4375C512.354 37.9375 514.135 36.8021 516.344 36.0312C518.552 35.2604 520.958 34.875 523.562 34.875C526.958 34.875 530.115 35.7708 533.031 37.5625L533.812 35.5312H539V45.5H532.969C532.448 44.1458 531.698 43.0833 530.719 42.3125C529.74 41.5417 528.594 41.1562 527.281 41.1562C525.74 41.1562 524.969 41.6458 524.969 42.625C524.99 43.2917 525.396 43.8646 526.188 44.3438C526.979 44.8021 528.26 45.4271 530.031 46.2188C531.135 46.6771 532.146 47.1354 533.062 47.5938C533.979 48.0521 534.802 48.4896 535.531 48.9062C536.99 49.7604 538.26 50.9688 539.344 52.5312C540.427 54.0729 540.969 56 540.969 58.3125C540.969 60.7708 540.333 62.8333 539.062 64.5C537.792 66.1875 536.104 67.4583 534 68.3125C531.896 69.1458 529.615 69.5625 527.156 69.5625Z" fill="#49D6D6"/>
</g>
<defs>
<clipPath id="clip0_65_2">
<rect width="561" height="91" rx="17" fill="white"/>
</clipPath>
</defs>
</svg>
